<svg width="100" height="100" viewBox="0 0 100 100" fill="none" xmlns="http://www.w3.org/2000/svg">
<path d="M99.5 50C99.5 77.3381 77.3381 99.5 50 99.5C22.6619 99.5 0.5 77.3381 0.5 50C0.5 22.6619 22.6619 0.5 50 0.5C77.3381 0.5 99.5 22.6619 99.5 50ZM55.5 48.5C55.5 52.366 52.366 55.5 48.5 55.5C44.634 55.5 41.5 52.366 41.5 48.5C41.5 44.634 44.634 41.5 48.5 41.5C52.366 41.5 55.5 44.634 55.5 48.5ZM48.5 56.5C52.9183 56.5 56.5 52.9183 56.5 48.5C56.5 44.0817 52.9183 40.5 48.5 40.5C44.0817 40.5 40.5 44.0817 40.5 48.5C40.5 52.9183 44.0817 56.5 48.5 56.5Z" stroke="#942323"/>
</svg>
