<?xml version="1.0" encoding="utf-8"?><svg xml:space="preserve" viewBox="0 0 100 100" y="0" x="0" xmlns="http://www.w3.org/2000/svg" id="圖層_1" version="1.1" width="100px" height="100px" xmlns:xlink="http://www.w3.org/1999/xlink" style="width:100%;height:100%;background-size:initial;background-repeat-y:initial;background-repeat-x:initial;background-position-y:initial;background-position-x:initial;background-origin:initial;background-color:initial;background-clip:initial;background-attachment:initial;animation-play-state:paused" ><g class="ldl-scale" style="transform-origin:50% 50%;transform:rotate(0deg) scale(0.8, 0.8);animation-play-state:paused" ><path fill="#d1d1d1" d="M45.833 67.723c-4.438 0-8.048-3.611-8.048-8.048v-17.5a.852.852 0 0 0-.841-.841H26.848c-3.828 0-5.153-2.201-5.545-3.148-.392-.946-1.012-3.44 1.695-6.147l21.311-21.311A7.996 7.996 0 0 1 50 8.377c2.153 0 4.174.835 5.691 2.351L77.002 32.04c2.707 2.707 2.087 5.2 1.695 6.147-.392.946-1.717 3.148-5.545 3.148H63.055a.852.852 0 0 0-.841.841v17.5c0 4.437-3.61 8.048-8.048 8.048h-8.333v-.001z" style="fill:rgb(209, 209, 209);animation-play-state:paused" ></path>
<g style="animation-play-state:paused" ><path fill="#d1d1d1" d="M16.347 91.623c-4.878 0-8.847-3.969-8.847-8.847V61.927c0-4.878 3.968-8.847 8.847-8.847s8.847 3.969 8.847 8.847V73.93h49.613V61.927c0-4.878 3.969-8.847 8.847-8.847s8.847 3.969 8.847 8.847v20.849c0 4.878-3.968 8.847-8.847 8.847H16.347z" style="fill:rgb(209, 209, 209);animation-play-state:paused" ></path></g>
<path fill="#464646" d="M36.944 37.731c2.444 0 4.445 2 4.445 4.445v17.5c0 2.444 2 4.444 4.445 4.444h8.333c2.444 0 4.444-2 4.444-4.444v-17.5c0-2.444 2-4.445 4.445-4.445h10.097c2.444 0 3.03-1.414 1.301-3.143L53.143 13.277a4.458 4.458 0 0 0-6.285 0L25.546 34.588c-1.728 1.728-1.143 3.143 1.302 3.143h10.096z" style="fill:rgb(70, 70, 70);animation-play-state:paused" ></path>
<g style="animation-play-state:paused" ><path fill="#464646" d="M83.653 88.02H16.347a5.244 5.244 0 0 1-5.243-5.243v-20.85a5.244 5.244 0 0 1 10.486 0v15.607h56.82V61.927a5.244 5.244 0 0 1 10.486 0v20.849a5.243 5.243 0 0 1-5.243 5.244z" style="fill:rgb(70, 70, 70);animation-play-state:paused" ></path></g>
<metadata xmlns:d="https://loading.io/stock/" style="animation-play-state:paused" ><d:name style="animation-play-state:paused" >upload</d:name>
<d:tags style="animation-play-state:paused" >publish,send,deliver,give,provide,upload,map</d:tags>
<d:license style="animation-play-state:paused" >free</d:license>
<d:slug style="animation-play-state:paused" >o1bv70</d:slug></metadata></g><!-- generated by https://loading.io/ --></svg>